<?xml version="1.0" encoding="utf-8"?>
<!-- Generator: Adobe Illustrator 17.0.0, SVG Export Plug-In . SVG Version: 6.00 Build 0)  -->
<!DOCTYPE svg PUBLIC "-//W3C//DTD SVG 1.1//EN" "http://www.w3.org/Graphics/SVG/1.1/DTD/svg11.dtd">
<svg version="1.1" id="Layer_1" xmlns="http://www.w3.org/2000/svg" xmlns:xlink="http://www.w3.org/1999/xlink" x="0px" y="0px"
	 width="2103.21px" height="992.13px" viewBox="0 0 2103.21 992.13" enable-background="new 0 0 2103.21 992.13"
	 xml:space="preserve">
<g>
	<path fill="#FFFFFF" d="M917.401,342.672c1.374,4.679,4.356,7.773,6.876,11.122c35.969,47.808,72.004,95.566,107.942,143.397
		c9.433,12.555,19.465,24.62,29.535,36.65c8.6,10.274,19.189,16.33,33.228,15.36c6.696-0.463,7.814,1.112,8.003,7.704
		c0.364,12.7,0.016,12.993-12.734,11.693c-2.974-0.303-5.975-0.476-8.964-0.487c-13.22-0.052-26.442-0.088-39.661,0.018
		c-3.976,0.032-8.137-0.118-11.885,0.96c-9.881,2.84-16.966-0.751-22.698-8.497c-5.043-6.814-10.081-13.632-15.179-20.404
		c-36.724-48.783-71.476-99.052-110.075-146.42c-13.528-16.602-27.358-32.959-41.1-49.385c-3.104-3.711-6.04-7.303-4.233-12.686
		c1.071-3.19,2.248-4.137,6.243-3.854c26.241,1.858,52.332,1.043,77.259-8.739c15.74-6.177,29.867-14.854,40.564-28.366
		c8.84-11.166,14.366-23.762,17.226-37.705c3.14-15.308,4.221-30.632,0.442-45.884c-7.19-29.026-26.198-46.97-54.313-55.32
		c-25.183-7.479-50.953-8.515-76.867-4.335c-8.821,1.423-17.545,3.455-26.3,5.277c-5.659,1.178-6.224,2.207-7.246,7.829
		c-1.665,9.155-1.12,18.375-1.491,27.577c-3.255,80.913-0.664,161.858-1.392,242.784c-0.218,24.228,0.067,48.466,0.55,72.691
		c0.183,9.163,1.068,18.367,2.961,27.389c1.698,8.09,6.457,13.289,14.79,14.875c8.799,1.674,17.599,3.311,26.616,3.189
		c3.748-0.051,7.512-0.204,11.245,0.043c6.489,0.431,7.312,1.898,7.274,11.8c-0.031,8.182-1.096,9.651-7.478,10.124
		c-1.491,0.111-3.004,0.099-4.497-0.002c-26.349-1.772-52.713-3.16-79.134-2.968c-15.484,0.112-31.042-0.563-46.428,0.75
		c-13.903,1.186-27.906-0.727-41.723,2.122c-4.771,0.984-6.612-1.05-7.206-6.03c-0.147-1.233-0.309-2.464-0.441-3.699
		c-1.01-9.446,1.276-12.274,10.858-12.076c11.279,0.233,22.323-1.224,33.399-3.065c7.846-1.304,12.576-5.588,14.6-13.044
		c1.961-7.221,3.053-14.598,3.06-22.09c0.031-33.743-0.048-67.487,0.028-101.23c0.109-47.949,0.154-95.9,0.603-143.846
		c0.114-12.161-0.496-24.282-0.535-36.419c-0.039-12.22,1.035-24.452-0.141-36.658c-0.37-3.845,1.698-6.079,4.237-8.143
		c15.557-12.651,32.562-22.966,50.716-31.45c28.519-13.328,58.635-20.639,89.744-24.655c23.57-3.043,47.372-4.984,70.793-2.039
		c37.931,4.768,67.685,27.4,77.12,66.129c9.688,39.769-0.525,74.279-28.42,103.96c-18.904,20.114-42.468,31.859-68.627,39.096
		C935.676,338.165,926.717,340.294,917.401,342.672z"/>
	<path fill="#FFFFFF" d="M506.036,563.518c-3.828-0.218-7.448,0.811-10.934,2.155c-17.548,6.763-35.761,10.202-54.442,12.046
		c-15.725,1.552-31.462,1.3-47.114,0.668c-31.94-1.291-63.416-5.804-92.925-19.197c-12.727-5.776-24.873-12.581-35.872-21.557
		c2.194-4.691,6.407-5.869,10.504-6.401c13.066-1.695,26.091-3.756,39.386-3.211c15.305,0.627,30.122,2.842,44.165,9.423
		c18.773,8.798,38.854,12.273,59.377,13.047c11.935,0.45,23.878,0.013,35.834-1.212c10.368-1.062,19.763-5.039,29.443-8.054
		c22.92-7.139,43.345-18.72,60.241-36.109c7.907-8.137,14.07-17.377,19.129-27.501c15.316-30.649,24.153-63.087,27.54-97.116
		c1.138-11.438,1.627-22.899,1.129-34.349c-1.766-40.621-8.587-80.116-27.258-116.802c-7.843-15.41-17.158-29.921-29.402-42.174
		c-15.538-15.549-34.038-26.652-54.622-34.41c-28.274-10.656-57.649-13.63-87.432-11.44c-32.227,2.369-61.801,12.777-87.192,33.45
		c-21.291,17.335-35.485,39.637-44.637,65.235c-7.838,21.922-12.037,44.566-13.035,67.895c-0.351,8.207-1.047,16.417-0.775,24.622
		c1.098,33.023,6.43,65.287,17.885,96.402c2.18,5.921,2.201,6.09-3.789,7.279c-18.527,3.678-37.074,7.256-55.629,10.791
		c-5.472,1.043-6.335,0.503-8.55-5.487c-5.19-14.035-9.23-28.386-11.902-43.136c-2.891-15.957-4.04-32.072-4.491-48.224
		c-1.51-54.185,11.806-103.826,45.135-147.455c21.142-27.676,47.41-49.011,78.312-64.675c23.514-11.919,48.545-19.176,74.724-22.372
		c16.308-1.991,32.625-3.968,49.107-3.492c40.137,1.159,79.189,7.438,116.049,24.328c37.953,17.391,67.448,44.05,87.88,80.448
		c14.96,26.65,23.513,55.497,25.683,85.881c1.024,14.342,2.66,28.743,1.552,43.257c-3.482,45.635-14.571,88.834-40.238,127.387
		c-10.103,15.175-21.346,29.481-35.293,41.429c-2.273,1.947-4.036,4.287-5.451,6.906c-0.144,0.31-0.288,0.621-0.425,0.935
		c-5.644,6.481-13.038,10.703-19.986,15.497c-0.516,0.397-1.068,0.746-1.626,1.08c-1.726,0.897-3.072,2.245-4.319,3.715
		c-1.761,1.706-3.948,2.547-6.269,3.125c-4.722,1.18-8.472,4.503-13.068,5.958C523.48,555.551,515.899,562.18,506.036,563.518z"/>
	<path fill="#FFFFFF" d="M1246.025,355.493c-2.331,15.589-1.652,31.051-1.927,46.436c-0.469,26.232-0.184,52.479-0.107,78.72
		c0.04,13.732,0.168,27.467,0.554,41.192c0.146,5.2,1.257,10.365,0.957,15.616c-0.109,1.912,1.042,2.627,2.805,2.624
		c1.749-0.002,3.499,0.013,5.248,0.013c33.738,0.001,67.479,0.233,101.214-0.094c17.901-0.173,35.87-0.192,53.619-3.093
		c5.875-0.96,11.592-2.857,17.452-3.947c7.582-1.41,11.359-5.844,13.255-13.257c4.191-16.386,8.412-32.756,11.873-49.315
		c1.953-9.347,11.318-13.922,19.794-9.631c2.262,1.145,3.028,3.26,2.516,5.668c-3.89,18.317-3.951,37.013-5.54,55.556
		c-1.128,13.166-1.545,26.362-1.334,39.584c0.134,8.435-1.072,9.994-9.489,9.428c-38.913-2.616-77.88-0.386-116.784-1.654
		c-14.963-0.488-29.909-0.507-44.861-0.71c-24.226-0.329-48.456-0.529-72.683-0.494c-20.656,0.03-41.339-0.282-61.884,2.68
		c-4.922,0.71-8.046-3.708-7.204-9.611c0.765-5.364,4.627-8.178,8.985-10.156c3.647-1.655,7.208-3.369,10.531-5.593
		c4.227-2.828,6.557-6.858,6.872-11.838c0.659-10.429,1.173-20.869,1.582-31.312c0.839-21.427,0.638-42.924,1.813-64.29
		c2.467-44.888,2.834-89.787,1.937-134.662c-0.639-31.955,0.049-63.908-0.909-95.836c-0.35-11.68,0.117-23.371-1.072-35.092
		c-1.143-11.273-3.954-21.996-7-32.761c-0.806-2.848-1.599-5.699-2.53-9.021c4.311-0.534,8.207-1.41,12.109-1.434
		c22.473-0.134,44.946-0.065,67.397-0.065c0.111,0.635,0.393,1.189,0.252,1.598c-6.636,19.242-5.861,39.231-5.994,59.126
		c-0.178,26.727,0.126,53.468-0.715,80.174c-0.377,11.956-0.615,23.907-0.784,35.864c-0.082,5.844,0.686,11.683-0.415,17.864
		c9.877,0.637,19.272,1.741,28.667,1.751c23.729,0.026,47.475,0.843,71.185-0.477c9.905-0.552,19.772-1.896,29.638-3.032
		c6.237-0.718,8.708-5.241,9.841-10.692c1.874-9.015,3.263-18.071,3.126-27.356c-0.209-14.15,0.544-14.708,14.846-13.835
		c5.599,0.342,6.657,1.201,6.526,6.696c-0.129,5.456-0.084,10.943-1.086,16.36c-0.314,1.699-0.566,3.52-0.298,5.198
		c1.954,12.212-0.489,24.227-1.441,36.31c-0.668,8.488,0.787,16.899,1.007,25.342c0.436,16.728,0.24,33.473,0.411,50.209
		c0.035,3.44-1.471,5.097-4.781,5.338c-0.249,0.018-0.501-0.005-0.749,0.017c-12.121,1.096-13.807-0.509-14.534-12.597
		c-0.687-11.42-2.845-22.667-4.772-33.923c-1.012-5.912-4.593-9.513-10.624-11.084c-8.715-2.27-17.623-3.393-26.495-3.75
		c-29.95-1.203-59.924-0.897-89.886-0.084C1252.74,354.257,1249.359,355.038,1246.025,355.493z"/>
	<path fill="#FFFFFF" d="M1856.535,140.643c-7.247,0-14.499-0.175-21.74,0.034c-19.611,0.566-38.575-3.48-57.46-7.96
		c-12.187-2.891-24.446-4.199-36.988-4.148c-46.98,0.19-93.961,0.027-140.942,0.108c-12.716,0.022-25.367-1.453-38.105-1.14
		c-8.345,0.205-15.531,2.46-21.885,7.95c-17.146,14.815-34.513,29.375-51.605,44.252c-5.919,5.152-12.099,8.239-20.25,7.53
		c-5.926-0.515-11.959,0.347-17.943,0.325c-7.22-0.028-8.449-1.707-6.754-8.594c3.27-13.285,6.595-26.557,9.825-39.852
		c1.516-6.241,0.259-8.336-6.318-9.893c-7.741-1.833-15.557-3.347-23.338-5.014c-1.699-0.364-3.386-0.785-5.078-1.187
		c-3.154-0.749-4.492-2.848-4.489-5.983c0.009-9.246,0.051-18.493-0.024-27.738c-0.036-4.395,2.491-6.129,6.359-6.912
		c7.309-1.479,14.594-3.072,21.883-4.651c1.695-0.367,3.406-0.744,5.035-1.327c5.087-1.819,6.694-4.138,5.622-9.695
		c-1.365-7.073-3.319-14.031-5.019-21.039c-1.583-6.527-3.219-13.042-4.734-19.585c-1.297-5.601-0.034-7.689,5.577-7.873
		c8.986-0.295,17.992-0.202,26.985-0.023c3.852,0.077,7.01,2.065,9.935,4.608c18.23,15.847,36.664,31.463,54.753,47.469
		c6.14,5.432,12.611,8.018,20.924,7.967c62.71-0.386,125.422-0.376,188.132-0.678c13.247-0.064,26.108-3.402,38.924-6.346
		c17.077-3.922,34.232-6.257,51.794-5.642c13.973,0.489,27.992-0.688,41.943,0.585c31.315,2.858,62.054,8.426,91.274,20.593
		c7.387,3.076,14.35,6.94,20.481,12.181c4.772,4.08,4.849,5.904-0.362,9.672c-12.401,8.967-25.797,15.969-40.508,20.455
		C1921.139,138.636,1889.14,142.095,1856.535,140.643z"/>
	<path fill="#FEBE10" d="M2023.768,720.046c-2.991,0-5.983,0-8.974,0c-560.884,0-1121.767,0-1682.651,0.013
		c-4.755,0-9.337-0.197-13.888-2.181c-13.03-5.679-26.228-10.973-39.336-16.474c-1.797-0.754-3.461-1.827-5.193-3.854
		c2.049,0,4.098,0,6.147,0c561.133,0.001,1122.267,0.008,1683.4-0.069c6.389-0.001,12.203,1.153,18.079,3.698
		c14.118,6.113,28.455,11.722,42.704,17.535C2023.96,719.157,2023.864,719.601,2023.768,720.046z"/>
	<path fill="#01315F" d="M344.239,727.072c2.335,0,4.67,0,7.005,0c562.169,0,1124.338,0.003,1686.507-0.051
		c4.325,0,8.373,0.573,12.362,2.259c9.409,3.977,18.892,7.78,28.327,11.699c1.822,0.756,3.838,1.288,5.042,3.056
		c1.241,1.822,0.331,4.183-1.853,4.399c-2.477,0.244-4.992,0.13-7.491,0.13c-443.436,0.004-886.872,0.003-1330.308,0.003
		c-114.234,0-228.467-0.024-342.701,0.067c-6.133,0.005-11.758-1.149-17.364-3.578c-13.155-5.699-26.448-11.081-39.685-16.59
		C344.132,728.001,344.185,727.536,344.239,727.072z"/>
	<path fill="#B81237" d="M1952.276,691.076c-4.677,0-9.173,0-13.669,0c-558.6,0-1117.2-0.005-1675.8,0.076
		c-5.618,0.001-10.801-0.851-15.937-3.086c-9.598-4.176-19.325-8.055-28.974-12.115c-1.587-0.668-3.293-1.372-4.505-2.522
		c-1.281-1.214-1.1-2.74,0.994-3.192c0.962-0.208,1.99-0.136,2.988-0.142c2.749-0.017,5.499-0.01,8.248-0.01
		c555.851,0,1111.701,0.009,1667.552-0.092c8.161-0.002,15.746,1.179,23.22,4.494c11.157,4.948,22.53,9.408,33.818,14.059
		C1951.098,688.91,1952.2,688.952,1952.276,691.076z"/>
	<path fill="#FFFFFF" d="M1728.91,354.545c0,55.068-0.225,100.31,0.167,145.548c0.092,10.618,0.304,21.367,2.659,31.909
		c1.89,8.463,6.532,13.549,15.153,15.405c9.785,2.108,19.637,3.087,29.609,3.183c2.999,0.029,6.023-0.221,8.992,0.085
		c4.085,0.422,5.778,2.211,5.847,6.276c0.063,3.719,0.615,7.5-0.463,11.175c-0.967,3.293-2.798,4.933-6.607,4.186
		c-8.306-1.63-16.739-2.159-25.202-2.232c-16.733-0.144-33.479-0.007-50.193-0.652c-6.446-0.249-12.924-1.226-19.365-0.772
		c-20.674,1.458-41.371,1.317-62.07,1.518c-4.437,0.043-8.856,1.239-13.363,0.918c-5.359-0.383-7.134-1.935-7.083-7.423
		c0.101-10.868-2.634-13.356,12.258-13.186c10.425,0.12,20.88-0.778,31.106-3.068c9.834-2.203,15.802-8.599,16.782-18.517
		c1.791-18.121,1.986-36.293,1.49-54.506c-0.53-19.442-0.248-38.884,1.124-58.321c0.807-11.439,0.655-22.959,0.639-34.441
		c-0.025-18.233,0.194-36.486-0.566-54.694c-1.574-37.699-0.334-75.406-1.007-113.1c-0.214-11.986,0.381-24.018-0.57-35.939
		c-0.876-10.979-0.676-21.919-0.781-32.878c-0.065-6.806,0.647-7.37,7.127-7.37c16.221,0,32.442-0.035,48.663,0.015
		c6.93,0.021,7.147,0.213,7.135,7.171c-0.04,22.732,0.503,45.476-0.516,68.194C1727.611,263.468,1729.785,313.928,1728.91,354.545z"
		/>
	<path fill="#00305E" d="M753.825,126.584c12.94-5.738,25.022-13.187,38.168-18.571c32.642-13.368,66.189-23.155,101.283-27.436
		c7.439-0.907,14.866-1.616,22.335-1.37c7.003,0.231,13.854-1.379,20.872-1.107c58.426,2.272,116.906,1.877,175.312,0.736
		c90.677-1.771,181.34-0.567,272.007-1.093c4.234-0.025,8.251-1.78,12.583-0.81c6.332,1.417,9.383,7.389,6.259,12.887
		c-1.098,1.932-3.076,1.292-4.725,1.301c-9.747,0.053-19.494,0.008-29.241,0.049c-1.479,0.006-2.956,0.296-4.434,0.454
		c-3.24,2.736-7.154,1.792-10.803,1.795c-60.988,0.061-122.005-1.158-182.956,0.332c-85.702,2.095-171.394,0.068-257.073,1.424
		c-24.995,0.395-49.432,5.98-73.43,13.147c-37.096,11.08-72.767,25.324-103.291,49.715c-17.365,13.876-31.975,30.251-35.585,53.653
		c-2.084,13.511,0.171,26.262,5.499,38.701c6.699,15.64,17.088,28.639,28.616,40.872c1.693,1.796,3.879,3.213,4.641,5.765
		c5.807,6.179,6.413,9.074,4.297,20.763c-3.036,0.081-5.097-1.995-7.007-3.736c-15.663-14.27-30.854-28.886-41.607-47.566
		c-20.274-35.218-16.038-71.088,11.016-101.157c5.983-6.65,12.616-12.716,18.932-19.067c0.685-0.689,1.45-1.383,1.395-2.506
		c0.173-0.306,0.346-0.612,0.513-0.923C735.584,136.409,743.096,128.879,753.825,126.584z"/>
	<path fill="#FEBE10" d="M1403.109,94.698c-0.021,0.249-0.03,0.5-0.066,0.747c-0.638,4.359,1.946,9.889-1.413,12.852
		c-2.929,2.584-8.157,0.837-12.359,0.838c-127.679,0.043-255.359,0.286-383.037-0.179c-25.185-0.092-50.391-0.727-75.591-0.831
		c-8.966-0.037-17.944-0.275-26.812,1.475c-6.383,4.17-13.916,3.344-20.923,4.63c-46.004,8.443-89.986,22.146-129.261,48.487
		c-10.431,6.996-19.841,15.129-27.334,25.233c-18.189,24.527-14.28,48.24,2.654,71.579c4.703,6.482,10.728,11.777,15.726,17.984
		c0.102,5.803,0.17,11.607,0.322,17.408c0.066,2.535-1.049,2.855-3.049,1.858c-28.573-21.857-52.163-61.583-38.442-97.768
		c7.642-20.153,22.284-34.694,39.507-46.775c42.557-29.853,90.594-45.76,141.249-54.797c13.539-2.415,27.208-3.162,40.973-3.09
		c33.492,0.175,66.997,0.587,100.477-0.079c40.727-0.811,81.455,0.106,122.167-0.697c69.716-1.375,139.432-0.41,209.146-0.485
		c14.207-0.015,28.449,0.453,42.677,0.59C1400.947,93.689,1402.235,93.509,1403.109,94.698z"/>
	<path fill="#B91539" d="M905.701,111.152c136.922-0.005,273.846-0.373,410.765,0.282c28.615,0.137,57.265,0.075,85.903,0.822
		c0.87,1.088,0.582,2.384,0.576,3.592c-0.035,6.781-1.466,8.32-8.212,8.757c-1.991,0.129-3.996,0.042-5.995,0.042
		c-137.672,0.001-275.344,0.021-413.016-0.026c-15.691-0.005-31.324-2.165-47.044-1.475c-32.42,1.424-64.339,5.613-95.423,15.553
		c-27.561,8.813-53.22,21.071-76.404,38.502c-7.661,5.76-14.576,12.389-20.172,19.896c-11.099,14.889-13.333,29.93-2.885,46.497
		c3.46,5.486,6.885,10.997,11.273,15.823c0.945,3.692,0.288,7.448,0.408,11.172c0.045,1.373,0.601,3.196-1.295,3.834
		c-1.265,0.426-2.427-0.357-3.371-1.209c-19.925-17.973-37.348-48.023-20.113-77.929c7.238-12.56,17.335-22.396,29.123-30.655
		c33.214-23.271,70.396-37.127,109.59-46.161C874.66,114.954,889.919,111.365,905.701,111.152z"/>
	<path fill="#FEBE10" d="M549.346,489.301c-1.18,1.776-2.503,3.885-3.942,5.912c-8.045,11.34-7.976,11.196-19.885,4.349
		c-16.988-9.767-35.362-16.169-54.183-21.247c-23.602-6.368-47.621-10.35-72.018-12.315c-13.146-1.059-26.292-2.075-39.437-3.094
		c-16.737-1.297-33.481-1.368-50.13-0.624c-41.815,1.869-83.417,5.914-123.852,17.751c-5.752,1.684-11.33,3.763-16.809,6.206
		c-5.43,2.421-6.855,1.686-8.982-3.777c-1.085-2.788-2.217-5.569-3.081-8.428c-1.65-5.459-1.042-6.884,4.368-9.19
		c10.351-4.413,21.206-7.285,32.129-9.824c27.411-6.37,55.028-11.689,83.077-14.268c29.887-2.748,59.892-2.383,89.79-0.972
		c40.841,1.927,81.334,6.995,120.632,19.101c20.314,6.258,40.221,13.467,58.056,25.397
		C549.343,487.133,549.584,487.433,549.346,489.301z"/>
	<path fill="#B81237" d="M530.83,510.83c-5.676,6.678-12.63,10.226-18.887,14.678c-1.752,1.247-3.161,0.72-4.799-0.205
		c-26.698-15.085-56.049-21.331-85.934-25.924c-35.138-5.4-70.482-5.692-105.857-4.219c-37.062,1.543-73.816,5.868-109.927,14.66
		c-7.965,1.939-15.763,4.57-23.62,6.944c-4.995,1.51-5.68,1.187-7.739-3.688c-1.646-3.897-3.269-7.816-5.168-11.592
		c-2.633-5.235-2.563-6.012,3.296-7.832c10.217-3.175,20.423-6.503,30.828-8.937c27.141-6.35,54.72-9.949,82.451-12.701
		c23.842-2.366,47.71-3.496,71.623-2.83c45.137,1.258,89.854,5.512,132.809,20.854C504.249,495.159,518.271,500.874,530.83,510.83z"
		/>
	<path fill="#00305E" d="M499.824,530.774c-0.661,2.016-2.617,2.269-4.089,2.879c-4.368,1.808-8.888,3.248-13.283,4.997
		c-10.008,3.981-19.722,4.611-30.35,1.046c-21.063-7.065-43.222-9.097-65.138-12.048c-28.027-3.774-56.237-3.714-84.378-2.889
		c-36.903,1.082-73.362,5.785-108.545,17.819c-6.256,2.14-6.299,2.043-8.934-3.647c-1.57-3.39-3.119-6.79-4.657-10.195
		c-2.755-6.1-2.368-7.314,3.668-9.357c16.05-5.433,32.358-9.973,49.101-12.66c18.404-2.954,36.915-4.891,55.529-6.304
		c23.198-1.761,46.387-1.988,69.521-0.658c39.052,2.245,77.693,7.583,115.08,19.763c7.329,2.388,14.454,5.401,21.678,8.112
		C496.856,528.319,498.797,528.817,499.824,530.774z"/>
	<path fill="#00305E" d="M689.503,620.966c11.03-3.574,20.645-9.191,27.962-18.484c6.338-8.049,12.192-16.413,16.389-25.744
		c1.525-3.389,3.346-4.359,6.748-4.202c4.976,0.229,9.971,0.05,14.957,0.072c1.463,0.006,3.059-0.203,3.75,1.626
		c0.18,7.595-5.076,12.847-8.476,18.763c-9.224,16.053-19.274,31.539-34.339,43.015c-2.861,2.179-5.755,3.818-9.315,4.235
		c-6.491,5.244-14.213,3.039-21.35,3.049c-22.161,0.03-44.062-2.607-65.384-8.903c-14.477-4.275-26.872-12.834-39.828-20.168
		c-25.171-14.248-48.191-31.677-71.365-48.863c-0.427-1.403,0.186-2.604,1.329-3.072c7.689-3.152,14.554-8.154,22.759-10.146
		c3.305,0.675,5.726,2.9,8.383,4.742c24.813,17.193,49.763,34.18,76.964,47.488c17.557,8.589,35.716,15.322,55.4,17.13
		C679.27,621.98,684.319,619.727,689.503,620.966z"/>
	<path fill="#FFFFFF" d="M951.916,809.147c5.378,9.015,11.099,17.998,17.368,26.62c1.255,1.726,2.23,3.948,4.883,4.28
		c2.098,0.262,1.847,2.056,1.766,3.478c-0.119,2.094-1.798,2.284-3.271,1.976c-4.419-0.925-8.769-1.549-13.218-0.049
		c-1.164,0.392-2.248-0.201-2.985-1.547c-6.65-12.147-14.225-23.751-21.48-35.103c1.032-2.152,2.423-1.636,3.565-1.728
		c7.52-0.603,12.75-6.256,12.709-13.779c-0.04-7.216-5.201-11.848-13.315-11.949c-4.929-0.061-5.665,0.529-5.893,5.384
		c-0.153,3.241-0.034,6.494-0.034,9.742c0.001,11.992-0.077,23.984,0.055,35.975c0.041,3.704-0.069,7.842,5.651,7.685
		c2.645-0.072,2.431,2.026,2.101,3.764c-0.407,2.143-2.128,1.673-3.556,1.437c-7.912-1.306-15.824-1.225-23.731-0.031
		c-1.837,0.277-3.593,0.576-3.952-1.926c-0.3-2.091,0.503-3.461,2.823-3.293c4.989,0.36,5.673-2.656,5.651-6.671
		c-0.087-15.489-0.151-30.98,0.045-46.467c0.05-3.955-1.267-6.139-5.135-6.75c-0.491-0.078-0.988-0.112-1.481-0.178
		c-1.553-0.208-1.981-1.221-1.895-2.626c0.098-1.606,1.092-2.057,2.502-1.979c12.981,0.717,25.947-0.49,38.924-0.281
		c0.248,0.004,0.497,0.044,0.744,0.074c6.082,0.725,12.021,1.829,14.4,8.598c2.558,7.279,0.357,15.197-5.61,20.165
		C957.273,805.858,954.643,807.317,951.916,809.147z"/>
	<path fill="#FFFFFF" d="M2058.875,845.497c0-8.977,0.008-17.16-0.006-25.344c-0.004-2.245,0.135-4.517-0.157-6.728
		c-0.685-5.188-2.908-7.005-7.952-6.859c-4.917,0.142-7.201,2.244-7.341,7.398c-0.183,6.736-0.05,13.48-0.043,20.22
		c0.003,3.222,0.394,6.046,4.739,5.95c1.657-0.036,2.846,1.148,2.638,2.909c-0.262,2.226-1.989,2.793-3.874,2.396
		c-6.408-1.349-12.773-1.383-19.181,0.023c-1.44,0.316-3.104,0.191-3.603-1.722c-0.536-2.052,0.138-3.599,2.426-3.603
		c3.233-0.005,3.655-2.274,3.7-4.523c0.15-7.477,0.67-14.98-0.278-22.429c-0.636-4.997-3.481-7.354-7.754-6.949
		c-4.709,0.446-7.195,2.901-7.281,7.649c-0.125,6.988-0.023,13.98-0.039,20.97c-0.006,2.601-0.051,5.145,3.621,5.227
		c2.191,0.049,3.224,1.292,2.726,3.427c-0.555,2.372-2.287,1.947-4.143,1.678c-6.41-0.928-12.824-1.201-19.234,0.24
		c-1.646,0.37-3.681,0.57-3.905-2.045c-0.179-2.093,0.762-3.452,2.986-3.29c3.926,0.285,4.502-2.056,4.478-5.186
		c-0.06-7.988-0.114-15.979,0.025-23.965c0.061-3.484-0.63-5.994-4.762-5.87c-1.848,0.055-2.745-0.755-2.727-2.623
		c0.017-1.752,1.382-1.773,2.546-2.052c5.063-1.215,10.122-2.443,15.194-3.618c2.267-0.525,3.222,0.532,3.214,2.777
		c-0.004,1.156-0.306,2.434,0.746,3.381c12.241-8.806,18.568-8.677,27.039,0.585c2.563-0.455,4.047-2.6,6.003-3.995
		c9.871-7.035,21.71-1.972,23.374,9.914c0.876,6.259-0.638,12.44-0.192,18.667c0.196,2.733,0.339,5.47,0.434,8.208
		c0.079,2.273,0.73,3.887,3.44,3.76c2.53-0.118,2.799,1.556,2.524,3.481c-0.311,2.178-1.56,1.689-3.23,1.409
		C2069.87,844.1,2064.667,844.361,2058.875,845.497z"/>
	<path fill="#FEBE10" d="M578.129,521.792c2.994-0.485,4.565,1.692,6.19,3.505c11.636,12.983,23.037,26.181,34.855,38.995
		c11.005,11.932,23.51,22.249,36.298,32.222c8.856,6.906,17.728,13.738,28.723,17.011c-2.173,2.959-2.225,3.168-6.29,2.166
		c-12.61-3.109-24.972-7.113-36.512-13.074c-22.72-11.735-43.034-26.974-61.406-44.658c-5.68-5.467-10.709-11.772-15.517-18.141
		c-2.363-3.131-2.935-5.58,1.218-7.725c4.921-2.542,8.325-7.032,12.615-10.401L578.129,521.792z"/>
	<path fill="#B81237" d="M546.129,544.291c1.452-1.298,3.18-1.934,5.094-2.126c0.984-1.961,3.233-2.455,4.605-3.966l-0.164,0.125
		c4.844-2.822,7.492,0.965,10.119,3.707c8.778,9.163,17.355,18.479,27.041,26.765c26.471,22.645,55.404,40.459,90.093,47.412
		c1.246,0.25,2.396,0.651,3.4,1.436c0.422,0.431,0.843,0.862,1.265,1.293c-8.873,6.122-18.32,2.888-27.308,0.997
		c-23.95-5.039-45.512-16.074-66.448-28.3c-16.792-9.806-32.989-20.559-48.71-32.028C535.512,552.6,535.621,549.789,546.129,544.291
		z"/>
	<path fill="#B81237" d="M809.133,573.295c-4.131,6.815-6.237,14.594-10.545,21.371c-18.238,28.684-43.914,45.31-77.871,48.973
		c-4.627,0.499-9.174,1.365-14.382,0.564c1.097-1.197,1.743-1.902,2.39-2.607c7.463-6.532,15.926-11.948,22.039-19.991
		c1.78-2.343,4.707-2.804,7.369-3.281c22.172-3.97,35.302-18.512,43.355-38.157c2.638-6.436,5.707-9.189,12.474-8.102
		C798.969,572.871,804.233,570.842,809.133,573.295z"/>
	<path fill="#FFFFFF" d="M1301.072,775.495c0.516,4.742-0.859,8.831-1.125,13.026c-0.101,1.595-0.509,3.043-2.527,2.921
		c-1.603-0.097-1.962-1.348-1.93-2.653c0.114-4.558-1.611-7.128-6.61-6.435c-0.432,0.06-0.914-0.436-1.394-0.49
		c-4.224-0.479-8.952-1.501-12.549,0.259c-4.221,2.065-1.632,7.206-2.002,10.938c-1.255,12.642-1.092,12.578,11.078,12.544
		c3.774-0.01,7.245,0.257,6.531-5.228c-0.178-1.365,0.73-2.199,2.27-2.307c2.047-0.144,2.618,1.025,2.626,2.703
		c0.028,5.749,0.013,11.498,0.007,17.247c-0.002,1.361-0.404,2.394-2.015,2.497c-1.7,0.11-2.578-0.348-3.019-2.299
		c-1.295-5.744-2.009-6.221-7.615-6.642c-0.746-0.056-1.499-0.024-2.249-0.012c-9.028,0.148-8.053-1.249-8.05,7.871
		c0.002,5.236,0.424,10.473,0.429,15.709c0.002,2.66,1.167,3.511,3.604,3.415c4.987-0.195,9.977-0.463,14.964-0.423
		c4.157,0.034,6.682-1.355,6.831-5.881c0.039-1.193,0.43-2.468,0.993-3.528c0.669-1.259,1.983-1.334,3.273-0.947
		c1.16,0.348,1.569,1.354,1.317,2.316c-1.091,4.156-0.918,8.386-0.984,12.61c-0.035,2.288-1.537,2.858-3.516,2.849
		c-4.499-0.02-9.05,0.433-13.487-0.089c-9.931-1.168-19.812-1.556-29.724-0.046c-1.037,0.158-2.088,0.03-2.672-0.863
		c-0.85-1.302-0.225-2.562,0.953-3.115c3.109-1.461,3.241-4.31,3.285-6.993c0.259-15.986,0.424-31.971-0.053-47.96
		c-0.116-3.898-1.444-6.134-5.41-6.394c-2.002-0.131-3.536-0.684-3.162-3.061c0.342-2.174,2.099-1.544,3.517-1.544
		C1268.606,775.497,1284.556,775.495,1301.072,775.495z"/>
	<path fill="#FFFFFF" d="M1113.502,815.872c7.289,8.247,13.209,17.811,22.631,24.148c1.548,1.041,1.928,2.143,1.689,3.653
		c-0.238,1.502-1.488,1.843-2.806,1.848c-4.243,0.016-8.485-0.012-12.728,0.011c-2.415,0.013-3.24-1.873-4.442-3.45
		c-4.929-6.463-9.849-12.948-17.352-18.939c0,4.49,0.097,7.859-0.027,11.219c-0.127,3.448,0.553,5.915,4.804,5.764
		c2.279-0.081,2.977,1.547,2.597,3.561c-0.488,2.588-2.489,1.958-4.13,1.647c-6.41-1.214-12.807-1.197-19.216-0.053
		c-0.49,0.088-0.984,0.165-1.479,0.212c-1.697,0.16-3.061-0.493-3.407-2.169c-0.349-1.689,0.683-3.261,2.321-3.096
		c5.501,0.553,5.083-2.964,5.068-6.583c-0.063-15.475-0.094-30.95,0.018-46.424c0.029-4.09-0.049-7.627-5.594-7.362
		c-1.05,0.05-1.745-0.822-1.841-1.961c-0.132-1.57,0.849-2.215,2.171-2.498c5.334-1.141,10.705-2.131,16-3.429
		c3.432-0.841,3.685,0.492,3.365,3.44c-1.474,13.578-0.263,27.178-0.708,40.974c3.163-0.156,4.556-1.992,6.103-3.502
		c3.214-3.139,7.01-5.921,9.405-9.605c4.096-6.303,9.989-5.229,15.814-5.189c1.299,0.009,2.499,0.32,2.664,1.922
		c0.15,1.457-0.574,2.074-1.986,2.555C1123.646,805.558,1122.8,806.204,1113.502,815.872z"/>
	<path fill="#FFFFFF" d="M1865.872,775.158c9.229,0,18.46,0.108,27.686-0.066c2.764-0.052,3.505,1.003,3.348,3.467
		c-0.239,3.729-0.376,7.465-0.543,11.199c-0.066,1.491-0.835,2.206-2.312,2.239c-1.602,0.035-1.832-0.95-2.209-2.3
		c-1.991-7.128-2.057-7.11-9.228-7.128c-9.716-0.025-9.717-0.025-9.717,9.984c0,12.987-0.047,25.975,0.02,38.962
		c0.034,6.572,0.114,6.703,6.254,8.531c1.898,0.565,2.305,1.601,2.188,3.222c-0.142,1.985-1.511,2.48-3.142,2.196
		c-8.399-1.461-16.787-1.433-25.182-0.022c-1.727,0.29-2.986-0.179-3.088-2.142c-0.079-1.523,0.016-3.336,2.094-3.157
		c5.582,0.48,5.889-3.036,5.875-7.127c-0.05-15.235-0.186-30.473,0.087-45.703c0.076-4.244-1.565-5.151-5.191-4.774
		c-1.729,0.18-3.493,0.021-5.241,0.033c-6.553,0.046-6.637,0.03-8.073,6.543c-0.359,1.626-0.576,2.923-2.555,2.88
		c-2.229-0.048-2.199-1.747-2.001-3.171c0.612-4.398-3.476-9.679-0.068-12.777c2.755-2.505,8.078-0.295,12.266-0.432
		c6.237-0.204,12.486-0.053,18.73-0.053C1865.871,775.426,1865.871,775.292,1865.872,775.158z"/>
	<path fill="#FFFFFF" d="M1714.093,803.036c3.913-1.088,5.79-5.036,10.229-5.834c11.225-2.017,18.86,3.354,19.063,14.63
		c0.13,7.238,0.035,14.481,0.02,21.721c-0.006,3.228-0.587,6.654,4.3,7.039c1.566,0.124,2.603,1.435,1.961,3.286
		c-0.646,1.864-2.339,1.978-3.697,1.542c-4.205-1.349-8.247-0.903-12.476,0.001c-3.641,0.778-4.995-0.847-4.307-4.75
		c1.486-8.423,0.599-16.892,0.577-25.33c-0.009-3.493-1.427-6.924-5.264-8.319c-3.081-1.12-5.896-0.269-8.452,1.601
		c-2.252,1.647-2.695,3.98-2.66,6.619c0.085,6.49,0.095,12.984-0.003,19.474c-0.046,3.078,0.384,5.423,4.252,5.477
		c1.878,0.027,2.441,1.546,2.163,3.19c-0.312,1.842-1.656,2.334-3.343,1.996c-6.906-1.381-13.789-1.268-20.688,0.109
		c-1.511,0.302-3.093,0.096-3.276-1.979c-0.141-1.591,0.206-3.366,2.089-3.276c5.957,0.284,5.367-3.735,5.347-7.557
		c-0.039-7.24-0.11-14.483,0.031-21.721c0.068-3.472-0.602-6.007-4.746-5.884c-1.844,0.055-2.752-0.737-2.743-2.61
		c0.008-1.754,1.364-1.785,2.533-2.065c5.063-1.213,10.124-2.442,15.195-3.62c2.257-0.524,3.256,0.507,3.219,2.763
		C1713.399,800.729,1713.274,801.97,1714.093,803.036z"/>
	<path fill="#FFFFFF" d="M1329.96,803.042c2.587-0.311,3.854-1.535,5.137-2.712c5.286-4.851,11.358-4.651,17.386-2.141
		c5.802,2.416,7.507,7.566,7.483,13.481c-0.03,7.491,0.003,14.982-0.011,22.473c-0.005,2.999-0.477,6.119,4.106,6.325
		c1.19,0.053,3.219,0.757,2.771,2.81c-0.466,2.131-2.261,2.669-4.092,2.115c-4.195-1.269-8.285-1.043-12.471,0.041
		c-3.171,0.822-4.701-0.611-4.288-3.915c0.964-7.714,0.313-15.46,0.454-23.189c0.036-1.979,0.014-4.044-0.495-5.931
		c-1.12-4.162-4.322-6.217-8.396-5.778c-3.859,0.415-7.313,3.317-7.458,7.149c-0.284,7.48-0.117,14.978-0.1,22.469
		c0.006,2.865,1.728,3.78,4.356,3.91c1.703,0.084,2.824,1.319,2.499,3.027c-0.4,2.098-1.92,2.498-3.983,2.12
		c-6.391-1.169-12.8-1.184-19.213,0.028c-1.615,0.305-3.738,0.968-4.439-1.314c-0.738-2.402,0.508-3.976,3.027-3.9
		c4.014,0.121,4.286-2.342,4.259-5.379c-0.071-7.99-0.093-15.981,0.006-23.971c0.043-3.475-0.694-5.946-4.883-5.73
		c-1.325,0.068-2.446-0.464-2.597-2.02c-0.204-2.111,1.362-2.267,2.852-2.6c4.844-1.081,9.733-2.021,14.49-3.406
		c2.891-0.842,3.643,0.182,3.604,2.737C1329.947,800.733,1329.96,801.727,1329.96,803.042z"/>
	<path fill="#FFFFFF" d="M787.612,845.821c-1.682-3.082-0.937-5.839-0.892-8.543c0.116-6.989,0.278-13.979,0.27-20.969
		c-0.004-3.056-0.839-5.974-3.317-8.023c-4.876-4.034-12.827-0.706-13.429,6.086c-0.659,7.439-0.461,14.97,0.278,22.451
		c0.211,2.134,1.192,3.203,3.28,3.191c2.462-0.014,2.925,1.488,2.639,3.453c-0.396,2.719-2.069,1.687-3.871,1.53
		c-6.18-0.538-12.388-1.116-18.573,0.339c-1.862,0.438-4.169,0.865-4.44-2.274c-0.205-2.373,1.115-3.124,3.179-2.994
		c3.385,0.212,4.306-1.736,4.299-4.656c-0.021-8.249-0.015-16.498-0.002-24.747c0.005-3.397-0.821-5.956-5.03-5.665
		c-1.368,0.094-2.363-0.606-2.422-2.176c-0.061-1.607,0.964-2.027,2.298-2.327c4.602-1.035,9.276-1.873,13.75-3.32
		c3.683-1.191,5.236-0.469,4.923,3.496c-0.058,0.729,0.107,1.475,0.171,2.23c2.32,0.122,3.67-1.616,5.086-2.849
		c5.516-4.804,11.597-4.131,17.509-1.582c5.788,2.496,7.216,7.927,7.18,13.718c-0.04,6.486-0.355,12.97-0.452,19.457
		c-0.064,4.235-0.35,8.655,5.672,9.322c1.345,0.149,2.144,1.251,1.555,2.748c-0.515,1.308-1.663,2.106-2.952,1.743
		C798.674,843.869,793.047,844.524,787.612,845.821z"/>
	<path fill="#FFFFFF" d="M1496.918,845.485c-1.397-2.058-0.782-4.047-0.749-6.019c0.135-8.236,0.385-16.48,0.144-24.707
		c-0.147-5.019-3-7.824-7.122-8.166c-4.373-0.363-8.374,2.408-9.227,7.003c-1.473,7.936,0.276,15.914,0.224,23.881
		c-0.013,1.995,1.962,2.499,3.892,2.638c2.028,0.146,3.283,1.351,2.612,3.528c-0.527,1.711-1.984,2.04-3.629,1.721
		c-6.65-1.288-13.286-1.291-19.947,0.032c-1.634,0.325-3.732,0.672-4.077-1.877c-0.281-2.073,0.81-3.501,2.942-3.403
		c3.836,0.175,4.552-1.913,4.505-5.16c-0.115-7.991-0.077-15.986-0.018-23.978c0.024-3.291-0.289-6.115-4.652-5.934
		c-1.692,0.07-2.909-0.571-2.804-2.568c0.09-1.705,1.444-1.751,2.629-2.018c5.76-1.296,11.521-2.589,17.107-3.844
		c2.181,1.922,0.387,4.508,1.681,6.354c1.93-0.106,3.236-1.306,4.504-2.496c5.508-5.165,11.797-4.828,18.013-2.025
		c5.751,2.593,7.064,7.922,7.012,13.774c-0.067,7.493,0.047,14.987-0.047,22.48c-0.037,2.949-0.029,5.404,3.96,5.707
		c1.338,0.102,3.777,0.788,2.764,3.383c-0.654,1.677-2.266,2.162-3.726,1.619C1507.516,843.403,1502.149,845.225,1496.918,845.485z"
		/>
	<path fill="#FFFFFF" d="M638.55,796.517c0,12.706,0.03,24.889-0.019,37.073c-0.014,3.422-0.169,6.706,4.755,6.557
		c2.012-0.061,2.381,1.495,2.217,3.109c-0.253,2.492-2.045,2.646-3.829,2.034c-3.436-1.178-6.915-0.893-10.36-0.484
		c-5.624,0.668-5.611,0.778-6.777-4.977c-1.069-0.216-2.032,0.141-2.591,0.973c-3.589,5.346-8.908,5.718-14.583,5.254
		c-6.764-0.552-11.02-4.685-11.253-11.561c-0.228-6.736-0.005-13.487-0.072-20.23c-0.044-4.375,1.015-9.522-6.149-9.382
		c-0.956,0.019-1.289-1.33-1.28-2.394c0.01-1.201,0.664-1.67,1.775-1.921c5.564-1.262,11.104-2.633,16.676-3.858
		c1.452-0.319,2.371,0.536,2.405,2.05c0.049,2.229-0.015,4.433-0.274,6.681c-0.94,8.16-1.362,16.356,0.333,24.494
		c1.056,5.069,3.056,6.878,7.198,6.61c4.602-0.297,8.129-3.447,8.272-7.952c0.206-6.488,0.014-12.987,0.068-19.481
		c0.023-2.801-1.171-4.147-4.028-4.071c-1.462,0.039-3.161,0.119-3.414-1.943c-0.326-2.664,1.911-2.491,3.474-2.842
		C626.819,798.973,632.565,797.79,638.55,796.517z"/>
	<path fill="#FFFFFF" d="M841.064,837.876c0-2.452-0.033-4.201,0.009-5.949c0.041-1.727,0.817-2.859,2.698-2.802
		c1.766,0.053,2.83,0.974,2.715,2.798c-0.185,2.925,0.391,5.287,3.183,6.981c2.928,1.777,5.977,2.459,9.289,2.123
		c3.823-0.388,6.713-3.157,7.036-6.576c0.299-3.164-1.6-5.389-5.778-6.58c-3.342-0.953-6.723-1.769-10.079-2.676
		c-5.276-1.427-8.77-4.441-9.314-10.238c-0.547-5.828,0.618-11.068,5.671-14.523c8.115-5.547,16.962-4.615,25.846-2.261
		c1.384,0.367,1.872,1.44,1.827,2.837c-0.089,2.743-0.088,5.489-0.202,8.231c-0.064,1.544-0.387,3.107-2.343,3.201
		c-1.895,0.091-2.196-1.27-2.657-2.862c-1.833-6.34-6.458-8.75-12.391-6.662c-2.735,0.962-4.979,2.498-4.998,5.762
		c-0.018,3.063,2.345,4.343,4.709,5.124c2.819,0.931,5.805,1.357,8.718,2.002c8.857,1.96,12.448,5.299,13.009,12.095
		c0.596,7.223-3.794,14.533-10.724,17.188c-8.015,3.071-16.026,2.413-24.085-0.329C838.377,843.12,842.383,839.497,841.064,837.876z
		"/>
	<path fill="#FFFFFF" d="M1196.48,807.887c-1.43,0.063-2.44,0.299-3.363,0.112c-2.711-0.55-3.687-2.841-1.646-3.819
		c6.28-3.008,5.196-8.421,4.928-13.465c-0.21-3.954,0.517-6.833,4.9-7.541c2.888-0.467,5.267-4.094,8.143-2.518
		c3.56,1.952-0.775,5.403,0.484,8.169c0.375,0.825-0.032,1.976,0.074,2.96c0.289,2.687-1.798,5.803,0.185,7.942
		c2.096,2.261,5.071,0.303,7.658-0.1c1.454-0.226,2.456,0.344,2.512,1.892c0.069,1.907,0.797,4.07-1.494,5.3
		c-0.411,0.221-0.973,0.159-1.466,0.225c-2.403,0.324-5.481-1.104-7.095,0.84c-1.948,2.346-0.676,5.732-0.782,8.659
		c-0.144,3.98-0.075,7.969-0.027,11.953c0.093,7.71,1,8.567,8.632,7.913c1.026-0.088,1.877-0.381,2.578,0.596
		c0.816,1.138-0.063,2.031-0.691,2.555c-2.785,2.326-4.492,5.979-8.738,6.525c-9.652,1.243-14.61-2.864-14.763-12.748
		C1196.376,824.897,1196.48,816.451,1196.48,807.887z"/>
	<path fill="#FFFFFF" d="M726.889,143.762c-11.274-1.47-22.691-0.844-33.982-2.462c-3.747-0.537-5.287-2.173-5.873-5.359
		c-0.356-1.934-0.485-3.94-0.457-5.909c0.078-5.489,1.589-7.246,6.975-7.335c9.701-0.16,19.42-0.343,29.104,0.099
		c5.217,0.238,10.434,0.098,15.641,0.426c4.561,1.14,9.354-0.215,15.88,1.297c-10.031,7.065-19.558,12.166-27.513,19.34
		L726.889,143.762z"/>
	<path fill="#FFFFFF" d="M1074.642,837.667c0.589,2.955-0.65,5.278-2.84,6.48c-9.619,5.277-26.023,4.227-32.142-7.572
		c-6.258-12.07-2.7-26.201,8.312-34.245c7.108-5.192,14.538-7.149,23.087-4.642c2.839,0.833,4.109,2.089,3.576,5.336
		c-0.478,2.907-1.558,5.75-1.197,8.826c0.2,1.705,0.069,3.707-2.538,3.602c-1.934-0.078-2.056-1.529-2.458-3.069
		c-1.672-6.403-6.431-8.9-12.177-6.577c-2.709,1.095-4.807,3.003-5.239,5.884c-0.965,6.439-1.356,12.929,1.724,19.015
		c3.299,6.517,8.824,8.918,17.003,7.649C1071.191,838.132,1072.363,836.783,1074.642,837.667z"/>
	<path fill="#FFFFFF" d="M1640.185,796.591c2.114,2.104,0.591,4.654,1.786,6.977c2.284-0.422,3.405-2.425,4.803-3.92
		c1.576-1.685,3.121-2.999,5.64-3.138c4.753-0.262,5.314,0.17,4.628,5.11c-0.44,3.17,0.535,6.448-0.622,9.448
		c-2.185,1.004-3.366-0.826-4.902-1.423c-5.702-2.216-9.836,0.309-10.043,6.536c-0.207,6.23,0.085,12.476-0.099,18.707
		c-0.108,3.684,0.902,5.747,5.014,5.196c1.219-0.163,2.402,0.004,2.913,1.575c0.695,2.135-0.594,4.212-2.857,3.822
		c-7.658-1.321-15.268-1.46-22.92,0.006c-1.677,0.321-2.903-0.593-3.036-2.435c-0.127-1.766,0.748-3.106,2.535-2.89
		c5.056,0.611,4.97-2.561,4.928-6.064c-0.092-7.732-0.131-15.469,0.017-23.199c0.067-3.517-0.703-5.954-4.802-5.828
		c-1.862,0.057-2.722-0.805-2.685-2.656c0.035-1.745,1.414-1.767,2.572-2.026C1628.827,799.095,1634.605,797.826,1640.185,796.591z"
		/>
	<path fill="#FEBE11" d="M761.085,574.325c0.276-0.315,0.391-0.681,0.347-1.097c6.699-2.53,13.635-0.576,20.447-1.022
		c2.835-0.185,2.055,2.156,1.852,3.779c-2.182,17.505-26.227,40.944-43.631,42.569c-1.462,0.136-3.134,0.72-4.085-0.829
		c-0.961-1.566,0.375-2.897,1.183-3.99C746.37,601.327,753.31,587.574,761.085,574.325z"/>
	<path fill="#FFFFFF" d="M1680.426,796.452c0,11.386-0.009,22.075,0.007,32.764c0.003,2.244,0.038,4.492,0.176,6.731
		c0.153,2.47,0.936,4.384,4.02,4.118c2.604-0.224,3.765,1.083,3.154,3.617c-0.587,2.432-2.369,1.81-4.155,1.516
		c-6.422-1.057-12.884-1.02-19.301-0.032c-2.141,0.33-4.021,0.892-4.378-2.095c-0.282-2.354,1.065-3.196,3.137-2.999
		c3.705,0.354,4.046-2.205,4.085-4.769c0.127-8.231,0.192-16.465,0.116-24.696c-0.029-3.147-0.651-6.078-5.027-5.625
		c-1.396,0.145-2.286-0.719-2.301-2.272c-0.015-1.658,1.133-1.948,2.403-2.228C1668.162,799.209,1673.951,797.901,1680.426,796.452z
		"/>
	<path fill="#FFFFFF" d="M1446.951,800.201c0,11.165,0.006,22.33-0.004,33.495c-0.003,3.448,0.161,6.664,4.999,6.402
		c2.583-0.14,2.62,1.74,2.38,3.581c-0.276,2.111-1.955,2.109-3.391,1.803c-6.887-1.47-13.752-1.409-20.639-0.079
		c-1.873,0.362-3.782,0.115-4.165-2.012c-0.48-2.665,1.423-3.436,3.697-3.318c2.385,0.123,3.285-0.677,3.731-3.275
		c1.401-8.173,1.009-16.374,0.682-24.536c-0.118-2.955,0.245-7.528-5.235-7.263c-1.615,0.078-1.964-1.167-1.996-2.513
		c-0.028-1.214,0.677-1.664,1.77-1.915c5.549-1.269,11.057-2.739,16.64-3.83C1448.05,796.226,1447.847,798.494,1446.951,800.201z"/>
	<path fill="#FFFFFF" d="M833.561,776.574c-0.67,1.653-1.165,3.061-1.798,4.405c-2.872,6.096-6.244,11.915-9.965,17.527
		c-0.809,1.219-1.745,2.774-2.966,3.208c-2.206,0.785-4.547,3.498-6.791,1.611c-2.163-1.819,0.43-4.073,1.158-5.937
		c1.996-5.114,3.996-10.24,4.711-15.674c0.425-3.232,1.447-4.898,4.894-5.265c2.68-0.285,5.256-1.476,7.905-2.156
		C832.793,773.758,833.105,775.27,833.561,776.574z"/>
	<path fill="#FFFFFF" d="M1447.974,780.413c0.067,4.765-3.104,8.168-7.619,8.177c-4.217,0.009-8.279-3.81-8.381-7.877
		c-0.1-3.997,3.885-8.031,8.08-8.178C1444.569,772.378,1447.908,775.699,1447.974,780.413z"/>
	<path fill="#FFFFFF" d="M1680.943,780.979c-0.068,4.58-2.889,7.53-7.273,7.605c-4.375,0.075-8.287-3.727-8.208-7.978
		c0.082-4.399,3.896-8.142,8.215-8.062C1678.33,772.629,1681.02,775.752,1680.943,780.979z"/>
	<path fill="#F3EAE7" d="M551.224,542.164"/>
	<path fill="#F3EAE7" d="M555.829,538.199"/>
	<path fill="#FFFFFF" d="M578.723,853.985c-4.362,1.969-8.842,1.518-13.149,0.182c-5.684-1.762-11.223-3.989-17.523-6.268
		c2.454-0.758,4.271-1.464,6.152-1.878c24.584-5.407,36.998-36.445,23.02-57.537c-5.636-8.505-13.737-12.464-23.646-13.803
		c-11.478-1.551-22.472-0.617-32.12,6.154c-13.661,9.587-15.524,23.799-13.203,38.754c2.34,15.076,11.607,24.172,27.389,26.978
		c-3.144,3.616-7.222,5.127-10.373,7.802c-1.298,1.102-3.018,2.431-1.566,4.3c1.09,1.403,2.778,0.681,4.058-0.188
		c4.827-3.274,9.799-2.625,15.022-1.019c7.127,2.19,14.411,3.866,21.541,6.048c7.183,2.198,11.62-2.694,16.653-6.056
		c0.783-0.523,0.707-1.863,0.255-2.805C580.703,853.543,579.687,853.55,578.723,853.985z M527.917,830.014
		c-5.951-12.458-6.768-25.455-1.344-38.238c5.744-13.538,25.373-15.179,33.958-3.212c5.056,7.049,5.978,15.109,6.07,22.896
		c-0.174,5.768-1.11,10.816-2.784,15.839c-2.771,8.317-8.575,12.52-16.933,13.588C539.948,841.773,531.3,837.098,527.917,830.014z"
		/>
	<path fill="#FFFFFF" d="M1806.395,845.56c-0.457-4.703-2.457-7.174-7.034-8.49c-5.347-1.537-10.922-2.059-16.252-0.857
		c-3.423,0.772-6.361-0.048-9.516-0.405c-1.577-0.178-3.131-0.49-3.064-2.445c0.069-2.012,1.449-3.211,3.364-3.408
		c2.229-0.229,4.512,0.044,6.734-0.222c8.552-1.024,18.371-5.747,18.189-17.984c-0.056-3.797,1.366-4.777,4.805-4.523
		c2.275,0.168,2.727-1.523,2.802-3.512c0.092-2.458-1.286-3.058-3.267-2.872c-5.117,0.481-9.664-1.14-14.411-2.901
		c-7.215-2.677-14.694-2.166-21.747,1.124c-7.783,3.631-11.564,11.812-9.51,19.817c1.222,4.767,4.967,7.273,8.595,9.928
		c-10.053,7.982-8.652,12.767-2.641,17.725c-4.05,2.769-8.343,4.462-8.128,10.247c0.24,6.464,2.181,10.621,8.291,12.765
		c10.239,3.593,20.583,3.638,30.492-1.301C1803.359,863.629,1807.4,855.895,1806.395,845.56z M1777.008,802.354
		c4.901-0.473,8.189,3.175,8.701,9.948c0.148,1.958-0.013,4.019-0.47,5.928c-0.968,4.044-3.937,6.617-7.11,6.546
		c-3.438-0.077-6.656-3.162-7.403-7.237c-0.269-1.464-0.28-2.976-0.32-3.446C1770.34,805.867,1772.223,802.815,1777.008,802.354z
		 M1793.389,858.411c-1.204,2.592-3.001,4.539-5.655,5.622c-5.515,2.25-11.103,2.426-16.596,0.089
		c-3.962-1.686-6.58-5.946-6.101-9.301c0.534-3.74,5.198-8.297,9.123-8.729c1.719-0.189,3.477-0.032,5.217-0.036
		c2.72,0.013,5.368,0.214,8.082,0.812C1794.282,848.368,1796.329,852.08,1793.389,858.411z"/>
	<path fill="#FFFFFF" d="M1422.918,845.056c-0.509-4.952-2.252-7.048-7.119-8.347c-5.362-1.431-10.938-2.007-16.241-0.647
		c-3.713,0.952-6.879-0.387-10.267-0.659c-2.45-0.197-2.888-2.545-1.138-4.324c2.27-2.308,5.153-1.374,7.814-1.508
		c12.516-0.63,19.026-7.174,19.503-19.658c0.027-0.71,0.193-1.415,0.271-1.962c1.145-1.202,2.469-0.929,3.655-0.864
		c2.488,0.135,3.532-0.786,3.61-3.405c0.088-2.935-1.476-3.307-3.723-3.113c-4.583,0.396-8.685-0.888-12.96-2.603
		c-6.62-2.656-13.677-2.526-20.454-0.124c-5.391,1.911-9.492,5.367-11.243,11.115c-2.546,8.358-0.656,13.012,8.343,19.791
		c-7.268,5.186-10.469,9.797-3.042,17.703c-6.166,3.928-7.369,5.178-7.928,8.24c-1.14,6.247,1.75,12.105,7.94,14.436
		c9.66,3.638,19.569,3.805,29.153-0.265C1419.914,864.267,1424.112,856.679,1422.918,845.056z M1387.444,807.402
		c0.89-3.472,3.272-5.413,7.058-5.343c3.738,0.069,6.076,1.985,7.028,5.467c0.514,1.88,0.576,3.883,1.068,7.491
		c0.105,4.561-3.041,9.303-7.456,9.495c-4.565,0.198-7.925-4.012-8.163-10.48C1386.899,811.823,1386.903,809.516,1387.444,807.402z
		 M1409.779,859.283c-4.254,7.477-20.07,8.886-25.615,2.258c-4.482-5.358-0.947-14.213,6.241-15.386
		c1.93-0.315,3.955-0.048,5.936-0.048c2.46,0.018,4.898-0.151,7.343,0.653c2.44,0.802,5.907-0.323,6.832,3.16
		C1411.337,853.013,1411.499,856.258,1409.779,859.283z"/>
	<path fill="#FFFFFF" d="M1028.519,812.149c-2.312-8.975-7.671-14.094-16.831-15.616c-5.519-0.917-10.939-0.536-16.2,1.22
		c-8.399,2.803-12.934,8.81-13.979,17.552c-0.467,3.901-0.45,7.77-0.039,11.693c1.362,12.97,9.057,19.978,22.279,20.061
		c12.667,0.079,21.264-5.342,24.216-15.81C1029.723,825.013,1030.189,818.634,1028.519,812.149z M1015.003,823.362
		c0.027,3.977-0.134,7.9-1.351,11.769c-1.101,3.5-3.333,5.477-6.842,5.972c-3.579,0.505-6.168-1.056-8.098-4.096
		c-1.381-2.175-1.849-4.513-2.343-6.98c-1.329-6.652-1.554-13.294,0.054-19.858c1.314-5.363,4.516-8.15,8.383-8.09
		c3.801,0.06,6.645,2.446,8.334,7.342C1014.693,813.921,1015.094,818.62,1015.003,823.362z"/>
	<path fill="#FFFFFF" d="M1988.048,840.512c-5.084-0.363-4.137-3.949-4.154-7.039c-0.043-7.722,0.097-15.446-0.061-23.165
		c-0.109-5.308-2.061-9.834-7.295-12.004c-8.897-3.688-16.96-1.681-24.465,3.923c-1.72,1.284-1.559,2.898-1.739,4.614
		c-0.176,1.671-1.076,3.457,1.299,4.316c1.991,0.72,2.78-0.712,3.255-2.104c1.372-4.018,4.674-4.221,7.922-3.828
		c3.606,0.437,6.462,2.093,7.58,6.097c1.264,4.527,1.325,4.676-3.532,5.84c-5.057,1.212-10.127,2.246-14.917,4.505
		c-6.961,3.282-8.547,13.487-4.576,20.044c3.336,5.509,11.156,6.025,17.696,1.56c1.76-1.202,3.172-3.17,5.618-3.273
		c0.217,4.893,0.214,4.729,4.734,4.637c3.706-0.076,7.484-0.676,11.122,0.513c1.417,0.463,2.424,0.257,3.026-1.094
		C1990.315,842.363,1989.567,840.621,1988.048,840.512z M1971.362,830.291c-0.327,3.72-3.184,6.508-6.64,6.757
		c-2.755,0.198-4.816-1.077-5.986-3.498c-1.449-2.999-0.105-6.805,3.307-8.918c2.685-1.662,5.571-3.097,9.365-2.448
		C1971.408,824.912,1971.597,827.62,1971.362,830.291z"/>
	<path fill="#FFFFFF" d="M1166.689,796.694c-9.251,0.644-18.051,3.94-21.805,13.166c-4.196,10.313-4.04,20.842,3.292,30.307
		c6.481,8.367,23.258,8.853,32.397,3.13c2-1.253,2.407-3.112,2.92-4.959c0.534-1.922-0.576-2.795-2.433-2.253
		c-2.143,0.625-4.162,1.741-6.33,2.197c-8.883,1.87-15.217-2.951-18.676-14.37c4.602-2.099,9.088-1.807,13.552-1.88
		c3.982-0.065,7.976-0.205,11.935-0.609c2.441-0.249,3.803-1.663,3.991-4.471C1186.294,805.611,1177.803,795.921,1166.689,796.694z
		 M1167.226,817.074c-1.232,0.062-2.47,0.009-3.706,0.01c-0.247,0.001-0.52,0.07-0.737-0.01c-2.378-0.872-6.421,2.099-7.04-2.706
		c-0.562-4.368,2.275-9.642,5.208-10.596c4.344-1.412,7.78,0.15,9.583,4.452c0.471,1.125,0.74,2.345,1.006,3.543
		C1172.478,815.999,1171.79,816.845,1167.226,817.074z"/>
	<path fill="#FFFFFF" d="M727.198,822.034c3.737,0.036,7.502,0.109,11.209-0.273c5.912-0.61,6.302-1.234,6.129-6.909
		c-0.402-13.132-11.105-20.278-22.887-17.465c-18.382,4.388-26.211,24.202-16.184,40.349c6.705,10.796,24.786,11.943,34.79,5.066
		c0.582-0.4,1.178-1.023,1.389-1.667c0.501-1.525,2.552-2.906,0.927-4.696c-1.363-1.501-2.793,0.041-4.071,0.455
		c-12.949,4.188-19.909,0.26-22.96-13.134C719.75,822.077,723.452,821.998,727.198,822.034z M722.479,817.09
		c-7.749-0.014-9.604-3.01-5.928-9.63c1.409-2.538,3.321-4.017,6.527-4.011c3.221,0.005,5.1,1.549,6.471,4.087
		c0.583,1.079,1.021,2.278,1.296,3.476c1.005,4.372-0.146,5.849-4.642,6.069C724.965,817.141,723.721,817.089,722.479,817.09z"/>
	<path fill="#FFFFFF" d="M685.075,798.58c-12.077-5.8-31.313,3.248-32.539,15.81c-0.512,5.248-1.049,10.521-0.048,15.62
		c1.231,6.269,4.251,11.699,10.598,14.472c7.926,3.462,15.859,3.568,23.903,0.356c3.017-1.205,4.961-3.266,6.001-6.255
		c0.685-1.969-0.297-2.801-2.14-2.6c-0.957,0.104-1.845,0.734-2.793,1.031c-12.645,3.96-19.236,0.143-22.372-13.021
		c3.106-1.769,6.502-1.956,9.997-1.969c4.738-0.017,9.476-0.268,14.213-0.438c1.827-0.065,3.448-0.443,4.094-2.524
		C696.256,811.747,691.941,801.878,685.075,798.58z M675.351,817.092c-0.735-0.057-1.478-0.008-2.217-0.008
		c-0.493,0-1.002,0.083-1.475-0.014c-2.352-0.48-5.792,1.519-6.57-2.629c-0.715-3.811,2.19-9.554,5.167-10.605
		c3.518-1.242,7.27-0.059,8.938,3.027c0.682,1.262,1.245,2.751,1.301,4.159C680.74,817.093,680.544,817.493,675.351,817.092z"/>
	<path fill="#FFFFFF" d="M1596.419,796.562c-8.88,0.162-19.362,6.85-22.148,14.13c-4.048,10.581-1.79,24.462,5.033,30.821
		c0.727,0.677,1.478,1.377,2.332,1.863c9.2,5.235,18.54,4.953,27.817,0.338c3.086-1.535,4.868-4.076,3.563-7.872
		c-17.315,5.024-23.598,2.186-26.734-11.941c3.64-1.875,7.571-1.873,11.534-1.864c4.486,0.01,8.996,0.35,13.445-0.553
		c2.074-0.421,3.444-1.189,3.738-3.8C1616.343,805.777,1608.17,796.347,1596.419,796.562z M1601.189,815.061
		c-1.305,3.813-5.249,1.256-7.984,2.19c-2.285-1.022-5.948,1.564-7.049-2.016c-1.045-3.396-0.127-6.953,2.464-9.742
		c2.575-2.772,7.395-2.836,10.008-0.116C1601.264,808.119,1602.339,811.7,1601.189,815.061z"/>
	<path fill="#FFFFFF" d="M1557.062,799.334c-12.528-7.5-31.325,2.584-33.332,12.794c-1.311,6.67-1.603,13.503-0.037,20.07
		c1.292,5.417,4.57,9.875,10.04,12.299c7.946,3.521,15.892,3.43,23.917,0.388c3.003-1.138,5.007-3.283,5.942-6.291
		c0.541-1.739-0.219-3.05-2.228-2.638c-1.433,0.294-2.718,1.243-4.138,1.676c-10.916,3.328-18.899-1.992-20.64-13.916
		c3.165-1.516,6.563-1.709,10.059-1.689c4.735,0.027,9.48,0.287,14.207-0.438c2.149-0.33,3.724-0.89,4.219-3.372
		C1566.343,811.835,1562.566,802.629,1557.062,799.334z M1546.423,817.104c-0.991-0.076-1.992-0.011-2.988-0.01
		c-8.543-0.01-9.9-2.063-6.348-9.412c1.484-3.07,3.78-4.309,7.176-4.191c3.529,0.122,5.563,1.724,6.339,5.106
		c0.22,0.96,0.789,1.887,0.808,2.838C1551.5,815.834,1552.059,817.536,1546.423,817.104z"/>
	<path fill="#FFFFFF" d="M1917.558,796.823c-15.112,3.379-22.293,10.667-21.165,24.96c0,0.997,0.008,1.994-0.001,2.992
		c-0.079,8.255,2.375,15.379,10.131,19.311c9.019,4.572,18.204,4.094,27.176-0.517c0.436-0.224,0.985-0.492,1.176-0.887
		c0.934-1.929,3.398-3.764,1.938-5.992c-1.579-2.409-3.611,0.091-5.266,0.619c-9.38,2.993-16.145,0.587-20.138-7.437
		c-2.659-5.342-1.837-7.17,3.952-7.685c3.958-0.352,7.972-0.036,11.957-0.151c2.733-0.079,5.479-0.247,8.181-0.64
		c1.775-0.258,3.082-1.173,3.384-3.343C1940.629,805.547,1929.643,794.12,1917.558,796.823z M1920.331,817.083
		c-0.986,0.036-1.974,0.005-2.961,0.005c-0.247,0-0.507,0.053-0.738-0.008c-2.71-0.712-7.031,2.024-7.671-3.127
		c-0.56-4.511,3.006-9.707,6.57-10.354c4.809-0.872,7.229,0.685,8.757,5.644c0.216,0.701,0.476,1.399,0.598,2.118
		C1925.739,816.402,1925.338,816.9,1920.331,817.083z"/>
</g>
</svg>
