<?xml version="1.0" encoding="utf-8"?>
<!-- Generator: Adobe Illustrator 17.0.0, SVG Export Plug-In . SVG Version: 6.00 Build 0)  -->
<!DOCTYPE svg PUBLIC "-//W3C//DTD SVG 1.1//EN" "http://www.w3.org/Graphics/SVG/1.1/DTD/svg11.dtd">
<svg version="1.1" xmlns="http://www.w3.org/2000/svg" xmlns:xlink="http://www.w3.org/1999/xlink" x="0px" y="0px"
	 width="841.89px" height="595.28px" viewBox="0 0 841.89 595.28" enable-background="new 0 0 841.89 595.28" xml:space="preserve">
<g id="Layer_1">
	<g>
		<defs>
			<rect id="SVGID_1_" x="-34.291" y="15.834" width="841.89" height="595.281"/>
		</defs>
		<clipPath id="SVGID_2_">
			<use xlink:href="#SVGID_1_"  overflow="visible"/>
		</clipPath>
		<path clip-path="url(#SVGID_2_)" fill="#FAF9F8" d="M397.209,537.19c-131.845,0-263.69-0.002-395.534,0.039
			c-1.552,0-1.902-0.35-1.902-1.9c0.041-147.92,0.041-295.84,0-443.761c0-1.552,0.349-1.902,1.901-1.901
			c263.69,0.04,527.38,0.04,791.069,0c1.551-0.001,1.902,0.348,1.902,1.9c-0.041,147.921-0.041,295.842,0,443.762
			c0,1.551-0.349,1.9-1.901,1.9C660.899,537.188,529.055,537.19,397.209,537.19"/>
		<path clip-path="url(#SVGID_2_)" fill="#010101" d="M390.124,207.2c3.834,1.062,7.766,1.822,11.343,3.672
			c8.34,4.314,13.133,11.367,14.714,20.387c2.363,13.484-2.562,24.539-12.535,33.469c-6.205,5.555-13.798,8.457-21.777,10.422
			c-2.009,0.494-3.978,1.185-6.286,1.354c1.246,2.646,3.197,4.672,4.843,6.884c7.366,9.904,14.709,19.827,22.236,29.608
			c5.123,6.66,9.927,13.561,15.309,20.025c2.061,2.475,3.974,5.055,6.384,7.225c2.465,2.217,5.405,2.953,8.57,2.762
			c1.978-0.119,2.469,0.57,2.41,2.459c-0.131,4.154-0.013,3.975-4.25,3.449c-2.786-0.346-5.65-0.143-8.475-0.059
			c-3.83,0.115-7.688-0.459-11.487,0.4c-3.279,0.744-5.104-1.102-6.849-3.504c-5.441-7.48-11.013-14.867-16.51-22.307
			c-3.904-5.283-7.712-10.637-11.671-15.877c-3.728-4.936-7.53-9.817-11.422-14.626c-4.631-5.722-9.358-11.369-14.12-16.982
			c-1.052-1.241-0.307-2.305-0.045-3.405c0.264-1.11,1.139-0.272,1.682-0.263c7.76,0.128,15.58,0.272,22.989-2.313
			c10.811-3.773,18.284-10.738,20.444-22.594c1.416-7.77,0.97-15.162-3.414-21.878c-4.091-6.269-10.457-9.303-17.491-10.815
			c-8.569-1.846-17.189-1.551-25.768,0.33c-1.494,0.326-2.989,0.688-4.495,0.984c-1.31,0.258-1.849,1.182-1.862,2.37
			c-0.017,1.367-0.41,2.726-0.375,4.035c0.123,4.605-0.52,9.166-0.51,13.766c0.063,29.107-0.072,58.216,0.143,87.32
			c0.033,4.483,0.079,9.047,0.994,13.564c0.78,3.848,3.047,4.566,5.955,5.092c3.6,0.648,7.268,1.07,10.953,0.885
			c1.689-0.084,2.4,0.684,2.275,2.334c-0.035,0.48-0.049,0.971,0.002,1.449c0.25,2.328-0.666,2.992-2.795,2.867
			c-4.647-0.273-9.301-0.422-13.953-0.619c-3.83-0.221-7.62,0.82-11.461,0.379c-2.199,0.072-4.398,0.068-6.599,0.014
			c-2.04,0.051-4.081,0.055-6.122,0.029c-0.879-0.012-1.785,0.037-2.509-0.625c-4.401,0.867-8.899-0.066-13.317,0.762
			c-2.213,0.416-2.842-0.287-2.855-2.525c-0.027-4.057-0.027-4.082,4.092-4.049c3.604,0.029,7.12-0.549,10.647-1.213
			c2.098-0.397,3.236-1.565,3.898-3.484c0.961-2.781,1.146-5.703,1.176-8.557c0.131-12.623-0.097-25.252,0.155-37.87
			c0.071-3.576-0.579-7.16,0.071-10.724c0.337-5.878-0.275-11.735-0.389-17.604c0.008-2.217-0.092-4.436,0.023-6.652
			c-0.141-3.079,0.022-6.158,0.027-9.237c0.001-0.961-0.012-1.916-0.32-2.841c-0.331-5.904-0.203-11.811-0.084-17.715
			c0.131-1.594,1.393-2.295,2.5-3.092c5.99-4.311,12.684-7.229,19.566-9.727c9.356-3.395,18.945-5.908,28.805-7.359
			c4.859-0.716,9.742-0.824,14.637-0.664C388.245,206.35,389.296,206.45,390.124,207.2"/>
		<path clip-path="url(#SVGID_2_)" fill="#010101" d="M259.723,324.161c5.146-7.246,8.094-15.42,9.971-24.008
			c1.697-7.774,2.433-15.678,2.052-23.616c-0.728-15.182-3.918-29.704-12.442-42.626c-7.05-10.683-17.245-16.815-29.393-19.998
			c-4.28-1.122-8.658-1.561-13.1-1.778c-9.796-0.48-19.23,0.875-28.031,5.25c-13.268,6.594-20.867,17.7-24.642,31.756
			c-2.711,10.093-3.084,20.404-2.36,30.689c0.652,9.268,2.884,18.316,6.282,27.022c0.096,0.244,0.17,0.496,0.256,0.748
			c-3.376,0.941-6.776,0.904-10.135,1.045c-3.547,0.149-6.986,0.883-10.444,1.52c-1.124,0.207-1.424,0.039-1.858-1.072
			c-2.22-5.688-3.69-11.526-4.561-17.573c-0.477-3.317-0.731-6.606-0.79-9.943c-0.036-2.035-0.507-4.05-0.39-6.109
			c0.595-10.434,2.177-20.645,6.641-30.227c3.077-6.607,7.078-12.55,11.991-17.974c6.659-7.348,14.558-12.924,23.478-17.021
			c6.614-3.038,13.603-4.961,20.876-5.926c5.958-0.791,11.917-1.425,17.91-1.15c8.476,0.389,16.868,1.395,25.061,3.842
			c8.187,2.445,15.806,6.057,22.58,11.176c5.977,4.517,10.848,10.156,14.795,16.609c3.944,6.453,6.44,13.445,8.028,20.741
			c0.811,3.733,1.477,7.565,1.397,11.451c-0.06,2.872,0.611,5.701,0.426,8.593c-0.691,10.756-2.324,21.288-6.685,31.27
			c-3.98,9.111-9.343,17.234-16.596,24.078c-0.844,0.795-1.602,1.682-2.4,2.525c-1.334,2.217-3.676,3.262-5.58,4.818
			c-0.317,0.207-0.646,0.398-0.959,0.615c-2.226,1.482-4.445,2.977-6.853,4.158c-0.525,0.248-1.041,0.518-1.549,0.801
			c-2.714,1.223-5.207,2.986-8.262,3.373c-2.399,0.02-4.441,1.307-6.672,1.93c-6.399,1.789-12.86,2.996-19.521,3
			c-2.96,0-5.925,0.105-8.88-0.02c-12.113-0.514-23.945-2.252-34.772-8.242c-2.571-1.424-5.095-2.904-7.364-4.818
			c1.492-2.197,4.086-1.758,6.279-2.189c4.741-0.928,9.595-0.711,14.343-0.328c3.187,0.256,6.368,1.363,9.391,2.73
			c4.776,2.162,9.833,3.252,15.064,3.84c3.503,0.395,6.995,0.473,10.455,0.258c3.68-0.227,7.474-0.256,10.926-1.949
			c1.225-1.24,2.991-1.156,4.468-1.789c1.794-0.77,3.536-1.746,5.527-1.988c1.19,0.023,2.117-0.521,2.915-1.348
			c1.838-2.117,4.243-3.465,6.612-4.859c1.058-0.068,1.52-0.84,1.95-1.65C256.163,327.501,257.844,325.751,259.723,324.161"/>
		<path clip-path="url(#SVGID_2_)" fill="#010101" d="M458.196,208.885c8.505-0.788,16.944-0.133,25.459-0.43
			c-0.561,1.91-1.257,3.619-1.538,5.395c-0.338,2.14-0.334,4.333-0.457,6.505c-0.038,0.688-0.013,1.379-0.005,2.069
			c0.187,15.284-0.724,30.558-0.432,45.844c0.016,0.852-0.607,2.177-0.254,2.474c0.823,0.691,2.102,0.172,3.188,0.278
			c7.82,0.767,15.662,0.3,23.493,0.405c5.106,0.07,10.162-0.57,15.205-1.262c1.459-0.199,2.309-1.223,2.687-2.662
			c0.971-3.691,1.34-7.453,1.209-11.25c-0.067-1.957,0.654-2.84,2.628-2.623c0.271,0.031,0.551,0.005,0.826,0.005
			c3.102,0,3.619,0.36,3.138,3.493c-0.611,3.978-0.051,7.955-0.395,11.908c-0.334,3.83-0.706,7.689-0.306,11.484
			c0.608,5.773,0.074,11.535,0.371,17.291c0.09,1.75-0.488,2.264-2.219,2.221c-3.923-0.1-3.745-0.035-4.068-3.98
			c-0.313-3.808-0.947-7.599-1.657-11.356c-0.357-1.897-2.036-2.928-3.767-3.275c-3.979-0.803-8.039-1.174-12.09-1.262
			c-6.412-0.138-12.83-0.076-19.245-0.018c-2.728,0.025-5.452,0.279-8.18,0.38c-0.677,0.024-1.061,0.171-0.965,0.922
			c0.018,0.136,0.006,0.275,0.001,0.413c-0.527,14.243-0.602,28.497-0.302,42.737c0.101,4.793,0.163,9.594,0.282,14.391
			c0.021,0.865,0.196,1.189,1.138,1.188c11.451-0.031,22.907,0.143,34.351-0.131c3.059-0.072,6.145-0.219,9.217-0.287
			c5.077-0.111,10.043-0.805,14.837-2.518c1.071-0.383,1.87-0.898,2.267-2.262c1.732-5.949,3.211-11.955,4.436-18.025
			c0.307-1.527,0.808-2.504,2.669-2.5c4.518,0.01,4.397-0.09,3.606,4.553c-0.512,2.996-0.671,6.06-0.871,9.102
			c-0.432,6.549-1.097,13.088-0.846,19.668c0.054,1.42-0.745,1.969-2.074,1.895c-2.038-0.115-4.091,0.264-6.121-0.371
			c-0.754-0.238-1.644-0.049-2.471-0.039c-24.597,0.254-49.186-0.74-73.782-0.393c-4.553,0.065-9.117,0.158-13.645,0.781
			c-0.928,0.127-1.408-0.525-1.635-1.26c-0.598-1.928,0.182-3.588,2.027-4.504c0.895-0.443,1.808-0.855,2.7-1.303
			c2.23-1.119,3.491-2.529,3.644-5.42c0.337-6.418,0.447-12.846,0.818-19.252c0.28-4.807,0.057-9.602,0.316-14.393
			c0.906-16.725,0.511-33.467,0.264-50.188c-0.147-9.901,0.059-19.809-0.324-29.701c-0.165-4.295-1.245-8.485-2.61-12.576
			C458.504,210.411,458.398,209.741,458.196,208.885"/>
		<path clip-path="url(#SVGID_2_)" fill="#010101" d="M626.299,211.33c2.827,0,5.655,0.035,8.483-0.02
			c0.945-0.019,1.309,0.188,1.302,1.231c-0.046,6.825,0.276,13.669-0.134,20.47c-0.253,4.187-0.27,8.355-0.278,12.527
			c-0.05,26.757-0.134,53.515,0.089,80.268c0.034,4.129-0.156,8.375,1.02,12.522c0.6,2.115,1.777,3.236,3.594,3.773
			c3.585,1.059,7.298,1.307,11.027,1.281c0.758-0.006,1.527-0.076,2.273,0.023c1.202,0.16,2.157,0.588,1.863,2.148
			c-0.125,0.666-0.019,1.375-0.021,2.064c-0.005,2.375-0.523,2.924-2.796,2.313c-1.234-0.33-2.421-0.322-3.634-0.338
			c-11.001-0.137-22.003-0.82-32.998-0.346c-5.006,0.215-10.007,0.182-15.005,0.367c-4.383,0.162-4.264,0.266-4.394-4.082
			c-0.062-2.084,1.225-2.125,2.529-2.125c3.611,0.002,7.188-0.242,10.754-0.836c4-0.666,5.936-3.025,6.257-7.17
			c0.753-9.688,0.074-19.385,0.408-29.07c0.398-11.552,0.727-23.116,0.294-34.653c-0.492-13.178,0.139-26.354-0.426-39.51
			c-0.273-6.39-0.07-12.767-0.332-19.145c-0.053-1.285,0.219-1.795,1.647-1.732C620.64,211.418,623.472,211.33,626.299,211.33"/>
		<path clip-path="url(#SVGID_2_)" fill="#19335D" d="M322.606,263.48c0.058,5.912,0.345,11.825-0.153,17.73
			c-0.026-3.305-0.088-6.606-0.061-9.909c0.009-1.097-0.05-1.787-1.367-2.229c-2.155-0.727-3.651-2.576-5.284-4.06
			c-5.031-4.571-9.496-9.67-12.283-15.959c-4.032-9.099-3.043-17.714,2.679-25.895c2.603-3.723,6.002-6.613,9.187-9.744
			c0.205-0.885,0.924-1.324,1.588-1.799c2.498-1.781,4.897-3.734,7.887-4.693c1.342,0.074,2.178-0.963,3.24-1.493
			c8.871-4.427,18.101-7.87,27.75-10.15c5.174-1.222,10.367-2.257,15.717-2.598c2.455-0.157,4.908-0.29,7.359-0.293
			c22.829-0.029,45.665,0.353,68.484-0.114c27.145-0.555,54.286-0.002,81.426-0.382c2.01-0.029,2.942,0.427,2.549,2.572
			c-0.146,0.803-0.079,1.645-0.109,2.47c-0.342,0.398-0.815,0.493-1.299,0.548c-0.548,0.063-1.101,0.056-1.652,0.056
			c-37.016,0.034-74.03,0.44-111.046,0.539c-15.088,0.041-30.185,0.059-45.274,0.332c-5.956,0.107-11.742,1.518-17.468,3.107
			c-11.296,3.134-22.042,7.531-31.853,14.021c-4.211,2.785-8.088,5.932-11.16,10.045c-5.828,7.802-6.266,15.723-1.161,24.063
			c2.95,4.82,6.819,8.814,11.053,12.491C321.824,262.543,322.319,262.909,322.606,263.48"/>
		<path clip-path="url(#SVGID_2_)" fill="#FDBE17" d="M322.606,263.48c-0.559-0.249-1.231-0.374-1.664-0.764
			c-5.858-5.296-11.44-10.852-13.901-18.636c-2.381-7.524-0.182-14.08,4.729-19.946c4.723-5.644,10.667-9.724,17.066-13.157
			c11.783-6.325,24.291-10.607,37.515-12.673c6.778-1.06,13.631-0.538,20.45-0.581c48.137-0.298,96.274-0.535,144.412-0.791
			c-0.008,1.781-0.018,3.564-0.025,5.348c-0.909,0.887-2.069,0.629-3.141,0.633c-9.998,0.021-19.996,0.013-29.994,0.013
			c-37.51,0-75.02,0.088-112.529-0.061c-9.516-0.039-18.832,0.871-28.07,3.092c-11.473,2.756-22.447,6.689-32.541,12.905
			c-3.68,2.265-6.902,5.054-9.724,8.287c-5.045,5.783-5.676,12.477-1.807,19.145c2.118,3.648,4.481,7.133,8.149,9.47
			c0.481,0.308,0.762,0.788,1.07,1.245C322.603,259.165,322.604,261.323,322.606,263.48"/>
		<path clip-path="url(#SVGID_2_)" fill="#B8203A" d="M322.602,257.008c-7.293-4.598-11.9-10.928-12.279-19.757
			c-0.178-4.129,1.853-7.564,4.447-10.61c5.211-6.125,11.991-10.058,19.164-13.379c11.685-5.412,24.028-8.582,36.721-10.451
			c2.645-0.389,5.336-0.532,8.035-0.531c50.073,0.029,100.148,0.021,150.223,0.021c0.759,0,1.517-0.015,2.275-0.021
			c0.3,4.572,0.3,4.572-4.279,4.572c-44.584,0-89.167-0.002-133.751,0.01c-1.016,0-2.071-0.219-3.032,0.339
			c-23.188-1.284-44.415,5.094-64.348,16.489c-1.359,0.777-2.693,1.664-3.689,2.937c-0.889,1.31-2.132,2.298-3.143,3.507
			c-3.656,4.373-4.217,9.069-1.578,14.131c0.8,1.533,1.893,2.862,2.832,4.297c0.256,0.391,0.566,0.902,1.125,0.705
			c0.568-0.201,0.34-0.814,0.424-1.263c0.177-0.942-0.43-2.089,0.712-2.784C322.666,249.147,322.81,253.075,322.602,257.008"/>
		<path clip-path="url(#SVGID_2_)" fill="#FDBE17" d="M259.723,324.161c-1.229,2.115-2.998,3.797-4.566,5.637
			c-5.937-4.402-12.713-6.99-19.708-9.109c-5.496-1.664-11.125-2.787-16.779-3.629c-4.357-0.65-8.775-1.018-13.177-1.42
			c-7.879-0.723-15.76-0.926-23.638-0.684c-6.387,0.195-12.762,0.742-19.13,1.498c-7.207,0.855-14.258,2.273-21.208,4.273
			c-1.87,0.537-3.723,1.219-5.469,2.07c-1.218,0.594-1.731,0.264-2.107-0.842c-0.174-0.51-0.336-1.023-0.535-1.523
			c-1.511-3.787-1.504-3.76,2.41-5.127c7.607-2.658,15.49-4.025,23.397-5.457c13.048-2.363,26.173-2.48,39.307-1.904
			c16.758,0.736,33.278,3.057,49.001,9.371C251.887,319.067,255.9,321.442,259.723,324.161"/>
		<path clip-path="url(#SVGID_2_)" fill="#B8203A" d="M253.207,331.448c-1.916,2.012-4.271,3.428-6.613,4.859
			c-4.5-3.316-9.754-4.885-14.988-6.52c-5.145-1.607-10.465-2.377-15.753-3.228c-2.933-0.473-5.938-0.598-8.91-0.863
			c-7.399-0.662-14.84-0.711-22.242-0.365c-5.949,0.277-11.907,0.74-17.845,1.492c-9.153,1.158-18.194,2.658-26.912,5.772
			c-0.767,0.273-1.261,0.199-1.579-0.871c-0.491-1.652-1.293-3.236-2.14-4.75c-0.511-0.912-0.476-1.162,0.561-1.522
			c6.919-2.404,14.003-4.059,21.235-5.209c5.683-0.906,11.374-1.566,17.104-2.1c8.144-0.76,16.299-1.049,24.436-0.691
			c13.018,0.57,25.972,1.914,38.411,6.162C243.415,325.472,248.753,327.622,253.207,331.448"/>
		<path clip-path="url(#SVGID_2_)" fill="#19335D" d="M243.679,337.655c-3.104,1.861-6.462,3.051-9.995,3.777
			c-3.699-0.883-7.282-2.176-11.01-2.977c-5.206-1.115-10.448-1.875-15.736-2.51c-8.652-1.037-17.321-1.43-26.002-1.129
			c-7.71,0.268-15.398,0.897-23.019,2.348c-4.943,0.941-9.8,2.06-14.493,3.844c-0.841,0.32-0.97,0.057-1.255-0.611
			c-0.706-1.652-1.53-3.256-2.296-4.885c-0.511-1.086,0.107-1.658,1.022-1.959c5.272-1.728,10.609-3.227,16.086-4.16
			c6.549-1.113,13.136-1.758,19.778-2.188c5.711-0.369,11.421-0.504,17.087-0.217c14.883,0.75,29.631,2.576,43.734,7.803
			C239.68,335.569,241.845,336.28,243.679,337.655"/>
		<path clip-path="url(#SVGID_2_)" fill="#19335D" d="M244.436,347.22c2.75-1.254,5.499-2.508,8.249-3.762
			c2.328,0.912,4.012,2.82,6.172,3.994c8.489,6.043,17.271,11.59,27.003,15.438c6.043,2.389,12.25,3.746,18.768,2.092
			c0.104-0.012,0.209-0.021,0.313-0.031c3.192-0.578,5.383-2.752,7.255-5.076c2.674-3.314,4.897-6.969,6.393-11.006
			c2.927-0.006,5.852-0.014,8.776-0.02c0.084,0.27,0.1,0.553-0.026,0.801c-2.857,5.588-5.42,11.359-9.846,15.984
			c-1.545,1.029-2.746,2.436-4.033,3.742c-2.074,2.107-4.486,3.5-7.463,3.82c-0.777-0.174-1.533-0.391-2.359-0.361
			c-6.935,0.238-13.788-0.721-20.506-2.178c-3.926-0.852-7.582-2.93-11.108-4.938c-5.569-3.172-11.077-6.461-16.267-10.242
			C251.981,352.726,248.208,349.972,244.436,347.22"/>
		<path clip-path="url(#SVGID_2_)" fill="#B8203A" d="M305.996,373.196c3.803-1.256,6.977-3.412,9.498-6.539
			c0.467-0.578,1.014-1.131,1.775-1.369c0.923-0.445,1.85-0.857,2.833-1.189c4.511-1.52,7.728-4.615,10.261-8.543
			c1.372-2.129,2.336-4.473,3.632-6.637c3.77-0.158,7.538-0.104,11.295,0.152c-2.69-0.424-4,0.748-4.976,3.313
			c-1.739,4.566-4.509,8.619-8.114,11.955c-5.093,4.717-11.059,7.641-18.031,8.566C311.426,373.27,308.724,373.218,305.996,373.196"
			/>
		<path clip-path="url(#SVGID_2_)" fill="#FDBE17" d="M261.895,337.905c1.915-1.482,3.829-2.965,5.744-4.449
			c2.18,2.43,4.395,4.83,6.531,7.297c3.804,4.391,7.658,8.705,12.08,12.521c2.729,2.355,5.486,4.647,8.393,6.77
			c3.127,2.287,6.652,3.717,10.297,4.906l-0.093,0.113c-1.733,0.65-3.392,0.086-5.056-0.326c-6.291-1.562-11.95-4.553-17.455-7.846
			c-4.379-2.617-8.44-5.701-12.358-8.969c-0.69-0.574-1.311-1.217-1.83-1.953c-1.694-2.164-3.626-4.131-5.31-6.303
			C262.43,339.14,261.814,338.702,261.895,337.905"/>
		<path clip-path="url(#SVGID_2_)" fill="#010101" d="M324.797,206.921c-3.156,2.167-6.52,4.03-9.475,6.491
			c-1.33-0.432-2.701-0.797-4.09-0.721c-2.406,0.129-4.759-0.361-7.143-0.453c-1.023-0.039-1.563-0.379-1.685-1.701
			c-0.123-1.355-0.525-2.448,0.268-3.527c0.57-0.758,2.191-0.564,3.828-0.568C312.609,206.19,318.69,207.026,324.797,206.921"/>
		<path clip-path="url(#SVGID_2_)" fill="#FFFEFE" d="M322.459,245.219c-0.024,1.163-0.056,2.328-0.072,3.492
			c-0.008,0.523,0.311,1.215-0.307,1.479c-0.701,0.301-1.423-0.12-1.818-0.659c-1.969-2.683-4.012-5.355-4.891-8.64
			c-1.302-4.854,2.035-11.85,6.719-14.264c0.416,5.313,0.082,10.637,0.199,15.954C322.309,243.461,322.4,244.339,322.459,245.219"/>
		<path clip-path="url(#SVGID_2_)" fill="#FCBD18" d="M333.994,348.917c-2.16,7.619-8.313,15.322-16.725,16.373
			c3.86-4.453,6.55-9.621,9.097-14.879c0.267-0.553,0.662-1.043,1-1.563C329.574,348.87,331.785,348.895,333.994,348.917"/>
		<path clip-path="url(#SVGID_2_)" fill="#B8203A" d="M268.426,345.556c3.835,4.125,8.469,7.258,13.166,10.244
			c6.496,4.129,13.355,7.553,21.006,9.061c0.734,0.145,1.499,0.139,2.249,0.203c-2.976,1.67-6.222,1.426-9.353,0.967
			c-9.972-1.461-18.525-6.353-26.955-11.506c-3.422-2.094-6.808-4.236-9.982-6.697c-1.013-1.17-2.337-1.998-3.392-3.119
			c-0.531-0.566-1.301-1.014-1.199-1.975c2.336-1.402,4.672-2.807,7.008-4.211c1.992,0.842,3.059,2.711,4.508,4.143
			C266.459,343.632,267.353,344.683,268.426,345.556"/>
		<path clip-path="url(#SVGID_2_)" fill="#FCFBF9" d="M268.426,345.556c-1.648-0.518-2.459-2.029-3.626-3.107
			c-1.341-1.236-2.556-2.609-3.825-3.926c0.307-0.205,0.613-0.41,0.92-0.617C264.22,340.331,266.39,342.886,268.426,345.556"/>
		<path clip-path="url(#SVGID_2_)" fill="#FCFBFB" d="M253.967,342.733c1.382,1.832,3.482,3.016,4.591,5.094
			c-2.045-1.338-4.163-2.58-5.873-4.369C252.979,342.983,253.52,342.942,253.967,342.733"/>
	</g>
</g>
<g id="Layer_2">
	<path d="M665.4,211.848l-4.583-0.316l-13.615-2.937l-3.563-0.427l-63.139-0.21c-2.792-0.011-5.073,2.115-5.073,2.115
		l-17.327,14.747c-2.226,1.961-3.115,1.961-3.115,1.961l-9.526,0.232c0,0-1.818,0-1.396-1.713l3.654-14.782
		c0,0,0.518-1.456-2.655-2.192l-9.222-2.003c-0.925-0.277-0.925-1.188-0.925-1.188v-10.126c0,0,0-0.937,0.922-1.191l9.222-2.002
		c0,0,2.973-0.441,2.269-3.345l-3.212-13.457c-0.304-1.108-0.054-1.88,1.364-1.88l9.505,0.012c0.849-0.012,1.688,0.445,2.152,0.887
		l19.102,16.514c0,0,1.729,1.734,4.291,1.649l62.872-0.22l3.695-0.409l13.754-2.851l4.56-0.467l17.439-0.002l4.436,0.408
		c12.557,1.211,23.154,4.951,23.154,4.951c7.371,2.729,10.076,5.4,10.076,5.4c2.045,1.278-0.013,2.557-0.013,2.557
		s-4.192,3.209-10.063,5.655c0,0-9.785,3.866-23.125,4.679l-4.481,0.002L665.4,211.848z"/>
</g>
</svg>
